# xmcd CD database file
#
# Track frame offsets:
#	150
#	12715
#	26020
#	42711
#	56057
#	68573
#	82709
#	95340
#	112337
#	126440
#	139544
#	154021
#	172034
#	187865
#
# Disc length: 2703 seconds
#
# Revision: 5
# Processed by: cddbd v1.5.1PL2 Copyright (c) Steve Scherf et al.
# Submitted via: CDex 1.50Beta7
#
DISCID=bf0a8d0e
DTITLE=Gaby Baginsky - Gaby goes Country
DYEAR=2002
DGENRE=Country
TTITLE0=Hey kleiner,was bist denn Du für einer
TTITLE1=Heut'Abend ist mir nach Dir
TTITLE2=Wenn ich geh
TTITLE3=Du machst mich rasend
TTITLE4=Frau Schiffer (Lieh'n sie mir mal ihren David aus)
TTITLE5=Verzeih mein Freund
TTITLE6=Kleiner Gitano
TTITLE7=Komm zu mir
TTITLE8=So ein Mann
TTITLE9=Du bist der Mann
TTITLE10=Bodyguard
TTITLE11=Mein allerbester Freund
TTITLE12=Küß mich nicht auf meine Wange
TTITLE13=So wie mich deine Hand berührt
EXTD=YEAR: 2002
EXTT0=
EXTT1=
EXTT2=
EXTT3=
EXTT4=
EXTT5=
EXTT6=
EXTT7=
EXTT8=
EXTT9=
EXTT10=
EXTT11=
EXTT12=
EXTT13=
PLAYORDER=
